# xmcd
#
# Track frame offsets: 
#        150
#        21375
#        30312
#        43159
#        63280
#        79473
#        96868
#        112628
#        135973
#        156906
#        169468
#        181818
#        203128
#        222112
#        234329
#        256209
#        282853
#        296540
#        312145
#        321629
#        340859
#        350914
#
# Disc length: 4791 seconds
#
# Revision: 0
# Processed by: cddbd v1.5.2PL0 Copyright (c) Steve Scherf et al.
# Submitted via: ExactAudioCopy v0.95a5
#
DISCID=4112b516
DTITLE=Various Artist - Country-Blues  vol.6  CD-1
DYEAR=2006
DGENRE=Country-Blues
TTITLE0=HANK SHIZZOE - Being There With You
TTITLE1=J.J.CALE - Hold On
TTITLE2=The UNDERDOGS - One Kiss
TTITLE3=TONY JOE WHITE - Ice Cream Man
TTITLE4=BIG HOUSE - Cold Outside
TTITLE5=LYNYRD SKYNYRD - Saturday Night Special
TTITLE6=JOHN FOGERTY - Sugar-Sugar (In My Life)
TTITLE7=HANK SHIZZOE - Be Good To Me
TTITLE8=MARK KNOPFLER and EMMYLOU HARRIS - This Is Us
TTITLE9=LYNYRD SKYNYRD - Poison Whiskey
TTITLE10=R.J.MISCHO - Old Nightcat
TTITLE11=GEORGE THOROGOOD - Blue Highway
TTITLE12=J.J.CALE - Friday
TTITLE13=RORY GALLAGHER - Don't Know Where I'm Going
TTITLE14=MICK MARTIN and Blues Rockers - Wonderful World
TTITLE15=DIRE STRAITS - You and Your Friend
TTITLE16=JOHN FOGERTY - I Will Walk with You
TTITLE17=CHRIS WHITLEY - Poison Girl (Album Version)
TTITLE18=LYNYRD SKYNYRD - Classical Christmas
TTITLE19=HANK SHIZZOE - (You Can Keep On) Fallin' Forever And Ever
TTITLE20=J.J.CALE - Don't Cry Sister
TTITLE21=The UNDERDOGS - Burning Kiss
EXTD=
EXTT0=
EXTT1=
EXTT2=
EXTT3=
EXTT4=
EXTT5=
EXTT6=
EXTT7=
EXTT8=
EXTT9=
EXTT10=
EXTT11=
EXTT12=
EXTT13=
EXTT14=
EXTT15=
EXTT16=
EXTT17=
EXTT18=
EXTT19=
EXTT20=
EXTT21=
PLAYORDER=
